<?xml version="1.0" encoding="UTF-8"?>
<svg version="1.1" xmlns="http://www.w3.org/2000/svg" width="2102" height="415">
<path d="M0 0 C0.76732452 -0.00979385 1.53464905 -0.01958771 2.32522583 -0.02967834 C56.23721015 -0.57564055 102.82425484 16.256964 141.75 54.23828125 C169.74944214 82.14190052 186.46898389 118.46939385 192.75 157.23828125 C192.9257959 158.30087158 193.1015918 159.36346191 193.28271484 160.45825195 C193.80303192 164.66727459 193.93002334 168.76820083 193.953125 173.00390625 C193.95882507 173.83678162 193.96452515 174.66965698 193.97039795 175.527771 C193.97980709 177.28933461 193.98636559 179.0509155 193.99023438 180.8125 C193.99982065 183.43913937 194.03083215 186.06495401 194.0625 188.69140625 C194.16025115 204.16503129 192.30565657 219.18640319 188.125 234.11328125 C187.87411621 235.01763916 187.62323242 235.92199707 187.36474609 236.85375977 C184.40892746 247.0385402 180.29491859 256.67181592 175.75 266.23828125 C175.42273926 266.93002441 175.09547852 267.62176758 174.75830078 268.33447266 C154.52091218 310.33046362 115.64672806 343.31271751 72.015625 359 C55.856251 364.47641855 38.60288075 368.29497123 21.5 368.4765625 C20.73267548 368.48635635 19.96535095 368.49615021 19.17477417 368.50624084 C-34.73721015 369.05220305 -81.32425484 352.2195985 -120.25 314.23828125 C-148.24944214 286.33466198 -164.96898389 250.00716865 -171.25 211.23828125 C-171.4257959 210.17569092 -171.6015918 209.11310059 -171.78271484 208.01831055 C-172.30303192 203.80928791 -172.43002334 199.70836167 -172.453125 195.47265625 C-172.45882507 194.63978088 -172.46452515 193.80690552 -172.47039795 192.9487915 C-172.47980709 191.18722789 -172.48636559 189.425647 -172.49023438 187.6640625 C-172.49982065 185.03742313 -172.53083215 182.41160849 -172.5625 179.78515625 C-172.66022808 164.3580025 -170.95477465 149.350699 -166.4375 134.55078125 C-166.04630981 133.23883789 -166.04630981 133.23883789 -165.6472168 131.90039062 C-164.87000207 129.33883308 -164.06759036 126.78720919 -163.25 124.23828125 C-162.91210449 123.17746338 -162.91210449 123.17746338 -162.56738281 122.09521484 C-151.18167994 87.21479924 -127.39905301 57.03000117 -98.25 35.23828125 C-97.38375 34.58859375 -96.5175 33.93890625 -95.625 33.26953125 C-68.40360804 13.5698397 -33.78153935 0.35867832 0 0 Z " fill="#CDB98A" transform="translate(191.25,18.76171875)"/>
<path d="M0 0 C14.19 0 28.38 0 43 0 C51.99677474 12.37056527 51.99677474 12.37056527 54.97265625 16.76953125 C55.63692627 17.74913818 56.30119629 18.72874512 56.9855957 19.73803711 C58.01366333 21.25989624 58.01366333 21.25989624 59.0625 22.8125 C60.17894975 24.46021822 61.29540315 26.107934 62.41215515 27.75544739 C63.16800705 28.87068088 63.92363287 29.98606763 64.67903137 31.10160828 C67.11667717 34.70076286 69.56293473 38.29389581 72.015625 41.8828125 C72.6562085 42.82020264 73.29679199 43.75759277 73.95678711 44.72338867 C75.128807 46.43755064 76.30141731 48.15130922 77.47485352 49.86450195 C83.39287553 58.5273647 89.17892528 67.26838792 95 76 C95.33 50.92 95.66 25.84 96 0 C110.52 0 125.04 0 140 0 C140 48.18 140 96.36 140 146 C125.48 146 110.96 146 96 146 C85.00104541 133.91472891 85.00104541 133.91472891 81.29980469 124.96582031 C79.53965755 120.94961681 77.18591496 117.68633935 74.5 114.25 C70.95150033 109.39434673 67.58726784 104.43214844 64.2734375 99.4140625 C61.33121271 94.97486857 58.3194185 90.58300529 55.3125 86.1875 C54.76553467 85.38675049 54.21856934 84.58600098 53.6550293 83.76098633 C52.86092651 82.60119263 52.86092651 82.60119263 52.05078125 81.41796875 C51.58325439 80.73500732 51.11572754 80.0520459 50.6340332 79.34838867 C48.45164151 76.2119139 46.22093141 73.10930397 44 70 C43.67 95.08 43.34 120.16 43 146 C28.81 146 14.62 146 0 146 C0 97.82 0 49.64 0 0 Z " fill="#F0E4C2" transform="translate(944,135)"/>
<path d="M0 0 C13.365 -0.0825 26.73 -0.165 40.5 -0.25 C44.68751953 -0.28641602 48.87503906 -0.32283203 53.18945312 -0.36035156 C58.38574219 -0.37841797 58.38574219 -0.37841797 60.83435059 -0.3817749 C62.50952431 -0.38783377 64.18468293 -0.40172384 65.85974121 -0.42230225 C84.97849039 -0.64500928 101.78250144 2.07518556 116.3125 15.6875 C131.70103157 32.08713701 135.55508764 54.29855737 135.1875 76.078125 C134.15023825 97.77418326 129.93138738 115.25957103 114 131 C86.21607764 156.19296134 27.70965342 146 0 146 C0 97.82 0 49.64 0 0 Z M46 35 C46 60.08 46 85.16 46 111 C63.98483558 111.40463908 63.98483558 111.40463908 80.25 104.875 C88.82241762 95.91292703 89.08215475 82.57799672 89.03515625 70.734375 C88.7697365 61.19179456 87.59044987 50.34973108 81.75 42.4375 C71.02872801 32.93455437 60.79108318 35 46 35 Z " fill="#FDFDFA" transform="translate(1961,135)"/>
<path d="M0 0 C13.365 -0.0825 26.73 -0.165 40.5 -0.25 C44.68751953 -0.28641602 48.87503906 -0.32283203 53.18945312 -0.36035156 C58.38574219 -0.37841797 58.38574219 -0.37841797 60.83435059 -0.3817749 C62.50952431 -0.38783377 64.18468293 -0.40172384 65.85974121 -0.42230225 C84.97849039 -0.64500928 101.78250144 2.07518556 116.3125 15.6875 C131.70103157 32.08713701 135.55508764 54.29855737 135.1875 76.078125 C134.15023825 97.77418326 129.93138738 115.25957103 114 131 C86.21607764 156.19296134 27.70965342 146 0 146 C0 97.82 0 49.64 0 0 Z M46 35 C46 60.08 46 85.16 46 111 C63.98483558 111.40463908 63.98483558 111.40463908 80.25 104.875 C88.82241762 95.91292703 89.08215475 82.57799672 89.03515625 70.734375 C88.7697365 61.19179456 87.59044987 50.34973108 81.75 42.4375 C71.02872801 32.93455437 60.79108318 35 46 35 Z " fill="#F2E8CC" transform="translate(1113,135)"/>
<path d="M0 0 C2.45499189 0.01609991 4.90833839 0.00004451 7.36328125 -0.01904297 C25.73410663 -0.04461255 42.39544338 2.67920645 56.203125 15.91064453 C62.29547947 22.61540205 69.45703125 32.92579332 69.45703125 42.39111328 C54.93703125 45.03111328 40.41703125 47.67111328 25.45703125 50.39111328 C21.99203125 44.94611328 21.99203125 44.94611328 18.45703125 39.39111328 C10.28718666 33.52263336 2.14275557 33.34879168 -7.54296875 34.39111328 C-14.74769313 35.98383519 -20.14991549 39.45170528 -24.54296875 45.39111328 C-29.75764761 54.33289804 -30.91684783 63.955745 -30.85546875 74.14111328 C-30.8505542 75.1061377 -30.84563965 76.07116211 -30.84057617 77.06542969 C-30.65073809 88.67573193 -29.14840913 99.31731649 -20.9453125 108.10205078 C-14.44493029 114.17302278 -7.40968088 115.92719904 1.33203125 115.76611328 C2.1214209 115.75741211 2.91081055 115.74871094 3.72412109 115.73974609 C13.11753723 115.5039928 20.20400562 112.66500155 28.45703125 108.39111328 C29.11703125 108.39111328 29.77703125 108.39111328 30.45703125 108.39111328 C30.45703125 104.43111328 30.45703125 100.47111328 30.45703125 96.39111328 C20.55703125 96.39111328 10.65703125 96.39111328 0.45703125 96.39111328 C0.45703125 86.16111328 0.45703125 75.93111328 0.45703125 65.39111328 C23.88703125 65.39111328 47.31703125 65.39111328 71.45703125 65.39111328 C71.66328125 75.31173828 71.86953125 85.23236328 72.08203125 95.45361328 C72.17307129 98.57451416 72.26411133 101.69541504 72.35791016 104.91088867 C72.38712641 107.39513859 72.41260624 109.87943647 72.43359375 112.36376953 C72.48475342 113.64505737 72.53591309 114.92634521 72.58862305 116.24645996 C72.59731727 125.15021427 72.59731727 125.15021427 69.30953979 128.72808838 C66.76234107 130.53633687 64.24737101 131.99422816 61.45703125 133.39111328 C60.07546855 134.20999202 58.69699836 135.03415672 57.32421875 135.86767578 C48.04088532 140.96308232 38.79568862 144.95151754 28.45703125 147.39111328 C27.69334229 147.57585205 26.92965332 147.76059082 26.14282227 147.95092773 C18.2753654 149.6265494 10.44779635 149.72983216 2.44262695 149.70678711 C0.15852812 149.70363261 -2.1242638 149.72714888 -4.40820312 149.75244141 C-23.51483087 149.8353167 -42.40722235 145.38420823 -56.94921875 132.21142578 C-73.90281278 114.50304845 -78.25209962 92.42805197 -77.84765625 68.70361328 C-77.1650123 49.90551709 -70.92560438 32.38335483 -57.39453125 19.01220703 C-40.74384026 3.70725682 -21.92722164 -0.17048677 0 0 Z " fill="#F8F3E4" transform="translate(1559.54296875,132.60888671875)"/>
<path d="M0 0 C2.45499189 0.01609991 4.90833839 0.00004451 7.36328125 -0.01904297 C25.73410663 -0.04461255 42.39544338 2.67920645 56.203125 15.91064453 C62.29547947 22.61540205 69.45703125 32.92579332 69.45703125 42.39111328 C54.93703125 45.03111328 40.41703125 47.67111328 25.45703125 50.39111328 C21.99203125 44.94611328 21.99203125 44.94611328 18.45703125 39.39111328 C10.28718666 33.52263336 2.14275557 33.34879168 -7.54296875 34.39111328 C-14.74769313 35.98383519 -20.14991549 39.45170528 -24.54296875 45.39111328 C-29.75764761 54.33289804 -30.91684783 63.955745 -30.85546875 74.14111328 C-30.8505542 75.1061377 -30.84563965 76.07116211 -30.84057617 77.06542969 C-30.65073809 88.67573193 -29.14840913 99.31731649 -20.9453125 108.10205078 C-14.44493029 114.17302278 -7.40968088 115.92719904 1.33203125 115.76611328 C2.1214209 115.75741211 2.91081055 115.74871094 3.72412109 115.73974609 C13.11753723 115.5039928 20.20400562 112.66500155 28.45703125 108.39111328 C29.11703125 108.39111328 29.77703125 108.39111328 30.45703125 108.39111328 C30.45703125 104.43111328 30.45703125 100.47111328 30.45703125 96.39111328 C20.55703125 96.39111328 10.65703125 96.39111328 0.45703125 96.39111328 C0.45703125 86.16111328 0.45703125 75.93111328 0.45703125 65.39111328 C23.88703125 65.39111328 47.31703125 65.39111328 71.45703125 65.39111328 C71.66328125 75.31173828 71.86953125 85.23236328 72.08203125 95.45361328 C72.17307129 98.57451416 72.26411133 101.69541504 72.35791016 104.91088867 C72.38712641 107.39513859 72.41260624 109.87943647 72.43359375 112.36376953 C72.48475342 113.64505737 72.53591309 114.92634521 72.58862305 116.24645996 C72.59731727 125.15021427 72.59731727 125.15021427 69.30953979 128.72808838 C66.76234107 130.53633687 64.24737101 131.99422816 61.45703125 133.39111328 C60.07546855 134.20999202 58.69699836 135.03415672 57.32421875 135.86767578 C48.04088532 140.96308232 38.79568862 144.95151754 28.45703125 147.39111328 C27.69334229 147.57585205 26.92965332 147.76059082 26.14282227 147.95092773 C18.2753654 149.6265494 10.44779635 149.72983216 2.44262695 149.70678711 C0.15852812 149.70363261 -2.1242638 149.72714888 -4.40820312 149.75244141 C-23.51483087 149.8353167 -42.40722235 145.38420823 -56.94921875 132.21142578 C-73.90281278 114.50304845 -78.25209962 92.42805197 -77.84765625 68.70361328 C-77.1650123 49.90551709 -70.92560438 32.38335483 -57.39453125 19.01220703 C-40.74384026 3.70725682 -21.92722164 -0.17048677 0 0 Z " fill="#ECDCB1" transform="translate(688.54296875,132.60888671875)"/>
<path d="M0 0 C1.94144897 -0.01546875 1.94144897 -0.01546875 3.92211914 -0.03125 C24.59687371 0.15805277 42.23724127 6.0500046 57.5 20.125 C74.80849153 38.39113347 75.96421722 61.2476302 75.44873047 85.14892578 C74.65592171 104.28715864 66.88823262 120.84553185 53.16796875 134.046875 C43.95623526 141.75902397 33.95140839 145.8064824 22.3125 148.4375 C21.57322266 148.6125708 20.83394531 148.7876416 20.07226562 148.96801758 C14.64437286 149.89139318 9.09920878 149.66323997 3.60522461 149.67773438 C1.41284671 149.68733428 -0.77854904 149.71834077 -2.97070312 149.75 C-22.89392318 149.90029854 -41.27214869 145.04534879 -56.08984375 131.19140625 C-73.27853124 113.29754184 -76.13317432 92.06356983 -75.8984375 68.14453125 C-75.44504319 47.96288705 -68.12735915 30.41309657 -53.625 16.1875 C-38.13442193 3.30105724 -19.55316117 0.10704975 0 0 Z M-21.0859375 42.578125 C-31.5879267 54.77067831 -30.74137504 72.37762574 -29.6875 87.4375 C-28.4861349 96.28601605 -24.83119293 104.47546626 -17.6640625 109.99609375 C-9.70717948 115.21687387 -0.98060052 115.47601737 8.3125 114.4375 C15.69271558 112.39960822 21.19494851 107.83748254 25.3125 101.4375 C29.24418555 92.87774179 29.51674779 84.02054162 29.5625 74.75 C29.583125 73.72455078 29.60375 72.69910156 29.625 71.64257812 C29.68040865 60.67859063 27.60866277 50.90991331 20.3125 42.4375 C13.09254551 35.78668606 5.51494839 35.03222444 -4.0546875 35.19140625 C-10.90160852 35.65522993 -16.02179666 37.90709098 -21.0859375 42.578125 Z " fill="#FAF7EE" transform="translate(1726.6875,132.5625)"/>
<path d="M0 0 C15.18 0 30.36 0 46 0 C46.04898438 6.47625 46.09796875 12.9525 46.1484375 19.625 C46.18383636 23.7356924 46.21980356 27.84636417 46.2578125 31.95703125 C46.31804507 38.47702023 46.37620963 44.99698044 46.421875 51.51708984 C46.45883655 56.77563146 46.5052259 62.03401422 46.55806351 67.29241943 C46.57654977 69.29536137 46.59167886 71.29833729 46.60334396 73.30133057 C46.62030536 76.1138118 46.64936387 78.92593377 46.68115234 81.73828125 C46.68331253 82.56043625 46.68547272 83.38259125 46.68769836 84.22966003 C46.8002778 92.06223314 47.98472791 98.69508651 53 105 C59.45042572 110.95423913 65.64739693 111.6225225 74.1875 111.37890625 C81.07963794 110.69392943 85.96320945 108.34230913 90.5 103.125 C93.62070652 96.62352809 94.30074341 90.74545305 94.31884766 83.66821289 C94.32889328 82.76010864 94.3389389 81.85200439 94.34928894 80.91638184 C94.38001164 77.93514601 94.39712568 74.95399954 94.4140625 71.97265625 C94.43278292 69.89757016 94.45235699 67.82249161 94.4727478 65.74742126 C94.52398254 60.30101984 94.56365461 54.85459377 94.60089111 49.40808105 C94.64804145 42.86504628 94.70960214 36.32213302 94.76873779 29.77919769 C94.85684445 19.85284775 94.9266846 9.92651985 95 0 C110.18 0 125.36 0 141 0 C141.12032643 22.60799886 141.12032643 22.60799886 141.14648438 32.32617188 C141.16434191 38.92902966 141.18535098 45.53176135 141.22631836 52.13452148 C141.25917655 57.46433319 141.27690823 62.79400945 141.28463173 68.12391472 C141.29012813 70.14624091 141.30085963 72.1685606 141.31719017 74.19082832 C141.47258638 94.25190278 139.980658 113.32104082 126 129 C125.47792969 129.61488281 124.95585938 130.22976563 124.41796875 130.86328125 C114.44407389 141.80787148 100.07796474 146.42961946 85.61572266 147.36547852 C81.97474762 147.51337662 78.3409478 147.51878345 74.69775391 147.46655273 C72.49955653 147.43749414 70.30377882 147.44603589 68.10546875 147.45898438 C50.16703516 147.43182909 32.87727943 145.19125483 19 133 C18.38253906 132.47664062 17.76507813 131.95328125 17.12890625 131.4140625 C5.00904603 120.34692956 1.32587094 104.74873381 0 89 C-0.12252829 85.93474325 -0.12731291 82.87572483 -0.11352539 79.80834961 C-0.11367142 78.93896759 -0.11381744 78.06958557 -0.1139679 77.17385864 C-0.11327767 74.33332726 -0.10552741 71.49286351 -0.09765625 68.65234375 C-0.0957889 66.66980526 -0.0943665 64.6872663 -0.09336853 62.70472717 C-0.08956829 57.5114716 -0.07975952 52.31824443 -0.06866455 47.125 C-0.05658819 40.88068478 -0.05203631 34.63636002 -0.04621124 28.39203644 C-0.03654625 18.9280046 -0.01737229 9.46403496 0 0 Z " fill="#EAD9AB" transform="translate(447,135)"/>
<path d="M0 0 C16.83 0 33.66 0 51 0 C55.7734375 12.66796875 55.7734375 12.66796875 57.43347168 17.07348633 C59.95320942 23.76054521 62.472991 30.44758757 64.99292374 37.13457298 C66.49270245 41.11444581 67.99245207 45.09432961 69.4921875 49.07421875 C69.79742592 49.88423717 70.10266434 50.6942556 70.4171524 51.52882004 C74.78945224 63.13185937 79.16029325 74.73544735 83.53013992 86.33941078 C85.32213007 91.09780505 87.11438917 95.85609803 88.90666008 100.61438656 C90.62632917 105.18002039 92.34555283 109.74582163 94.06446648 114.31173992 C95.13511296 117.15535262 96.20618294 119.99880566 97.27737045 122.84221458 C97.77343477 124.15925561 98.26932229 125.47636324 98.76501846 126.79354286 C99.44248413 128.59365899 100.12063964 130.39351544 100.79882812 132.19335938 C101.36736511 133.70319397 101.36736511 133.70319397 101.9473877 135.24353027 C102.64384811 137.06734712 103.37366361 138.87880516 104.13757324 140.67541504 C105 143 105 143 105 146 C89.16 146 73.32 146 57 146 C51 128 51 128 50 122 C33.17 122 16.34 122 -1 122 C-1.33 124.31 -1.66 126.62 -2 129 C-3.65 134.61 -5.3 140.22 -7 146 C-22.51 146 -38.02 146 -54 146 C-53.16553492 140.99320954 -51.95286923 136.73541368 -50.17578125 132.046875 C-49.88212173 131.25924774 -49.58846222 130.47162048 -49.28590393 129.66012573 C-48.30021734 127.02134219 -47.30646767 124.38567438 -46.3125 121.75 C-45.60464203 119.86129217 -44.89713174 117.97245401 -44.18994141 116.08349609 C-35.82925444 93.7830483 -27.35914917 71.5234643 -18.89703369 49.26135254 C-16.09700768 41.89321287 -13.30418466 34.5224003 -10.51953125 27.1484375 C-10.1848584 26.26241852 -9.85018555 25.37639954 -9.50537109 24.46353149 C-8.26928148 21.19060841 -7.03334364 17.91763023 -5.79949951 14.64385986 C-4.99611077 12.51224315 -4.19152416 10.38108215 -3.38671875 8.25 C-2.94545654 7.07953125 -2.50419434 5.9090625 -2.04956055 4.703125 C-1 2 -1 2 0 0 Z M24 41 C22.00033153 47.49438723 20.00716837 53.99074467 18.01855469 60.48852539 C17.34102264 62.69959892 16.66199256 64.91021399 15.98144531 67.12036133 C15.00453511 70.29389541 14.03299187 73.4690294 13.0625 76.64453125 C12.60315063 78.13059624 12.60315063 78.13059624 12.13452148 79.64668274 C11.85423096 80.56741074 11.57394043 81.48813873 11.28515625 82.43676758 C11.03644775 83.2472908 10.78773926 84.05781403 10.53149414 84.89289856 C9.8777106 87.12263142 9.8777106 87.12263142 10 90 C19.9 90 29.8 90 40 90 C38.23249455 82.92997819 36.47970366 75.94829979 34.37109375 68.98828125 C34.13592545 68.20857468 33.90075714 67.4288681 33.65846252 66.62553406 C33.16853799 65.00613223 32.67699484 63.38721921 32.18383789 61.76879883 C31.42795326 59.28108038 30.68368075 56.79005525 29.93945312 54.29882812 C29.45903759 52.71593192 28.97794358 51.13324143 28.49609375 49.55078125 C28.16477699 48.43380608 28.16477699 48.43380608 27.82676697 47.29426575 C27.27639733 45.51038213 26.64539405 43.75174599 26 42 C25.34 41.67 24.68 41.34 24 41 Z " fill="#F4EDD6" transform="translate(1301,135)"/>
<path d="M0 0 C16.83 0 33.66 0 51 0 C55.7734375 12.66796875 55.7734375 12.66796875 57.43347168 17.07348633 C59.95320942 23.76054521 62.472991 30.44758757 64.99292374 37.13457298 C66.49270245 41.11444581 67.99245207 45.09432961 69.4921875 49.07421875 C69.79742592 49.88423717 70.10266434 50.6942556 70.4171524 51.52882004 C74.78945224 63.13185937 79.16029325 74.73544735 83.53013992 86.33941078 C85.32213007 91.09780505 87.11438917 95.85609803 88.90666008 100.61438656 C90.62632917 105.18002039 92.34555283 109.74582163 94.06446648 114.31173992 C95.13511296 117.15535262 96.20618294 119.99880566 97.27737045 122.84221458 C97.77343477 124.15925561 98.26932229 125.47636324 98.76501846 126.79354286 C99.44248413 128.59365899 100.12063964 130.39351544 100.79882812 132.19335938 C101.36736511 133.70319397 101.36736511 133.70319397 101.9473877 135.24353027 C102.64384811 137.06734712 103.37366361 138.87880516 104.13757324 140.67541504 C105 143 105 143 105 146 C89.16 146 73.32 146 57 146 C51 128 51 128 50 122 C33.17 122 16.34 122 -1 122 C-1.33 124.31 -1.66 126.62 -2 129 C-3.65 134.61 -5.3 140.22 -7 146 C-22.51 146 -38.02 146 -54 146 C-53.16553492 140.99320954 -51.95286923 136.73541368 -50.17578125 132.046875 C-49.88212173 131.25924774 -49.58846222 130.47162048 -49.28590393 129.66012573 C-48.30021734 127.02134219 -47.30646767 124.38567438 -46.3125 121.75 C-45.60464203 119.86129217 -44.89713174 117.97245401 -44.18994141 116.08349609 C-35.82925444 93.7830483 -27.35914917 71.5234643 -18.89703369 49.26135254 C-16.09700768 41.89321287 -13.30418466 34.5224003 -10.51953125 27.1484375 C-10.1848584 26.26241852 -9.85018555 25.37639954 -9.50537109 24.46353149 C-8.26928148 21.19060841 -7.03334364 17.91763023 -5.79949951 14.64385986 C-4.99611077 12.51224315 -4.19152416 10.38108215 -3.38671875 8.25 C-2.94545654 7.07953125 -2.50419434 5.9090625 -2.04956055 4.703125 C-1 2 -1 2 0 0 Z M24 41 C22.00033153 47.49438723 20.00716837 53.99074467 18.01855469 60.48852539 C17.34102264 62.69959892 16.66199256 64.91021399 15.98144531 67.12036133 C15.00453511 70.29389541 14.03299187 73.4690294 13.0625 76.64453125 C12.60315063 78.13059624 12.60315063 78.13059624 12.13452148 79.64668274 C11.85423096 80.56741074 11.57394043 81.48813873 11.28515625 82.43676758 C11.03644775 83.2472908 10.78773926 84.05781403 10.53149414 84.89289856 C9.8777106 87.12263142 9.8777106 87.12263142 10 90 C19.9 90 29.8 90 40 90 C38.23249455 82.92997819 36.47970366 75.94829979 34.37109375 68.98828125 C34.13592545 68.20857468 33.90075714 67.4288681 33.65846252 66.62553406 C33.16853799 65.00613223 32.67699484 63.38721921 32.18383789 61.76879883 C31.42795326 59.28108038 30.68368075 56.79005525 29.93945312 54.29882812 C29.45903759 52.71593192 28.97794358 51.13324143 28.49609375 49.55078125 C28.16477699 48.43380608 28.16477699 48.43380608 27.82676697 47.29426575 C27.27639733 45.51038213 26.64539405 43.75174599 26 42 C25.34 41.67 24.68 41.34 24 41 Z " fill="#EDE0B9" transform="translate(825,135)"/>
<path d="M0 0 C15.18 0 30.36 0 46 0 C46 35.97 46 71.94 46 109 C69.1 109 92.2 109 116 109 C116 121.21 116 133.42 116 146 C77.72 146 39.44 146 0 146 C0 97.82 0 49.64 0 0 Z " fill="#FCFAF4" transform="translate(1825,135)"/>
<path d="M0 0 C6.75402307 5.59437005 11.89456589 12.17522835 14.8203125 20.46484375 C14.8203125 21.45484375 14.8203125 22.44484375 14.8203125 23.46484375 C4.24399017 26.14215335 -6.39802804 27.85954915 -17.1796875 29.46484375 C-17.510896 28.90982178 -17.84210449 28.3547998 -18.18334961 27.78295898 C-18.62428955 27.05794189 -19.06522949 26.3329248 -19.51953125 25.5859375 C-19.95386475 24.86591553 -20.38819824 24.14589355 -20.83569336 23.40405273 C-23.4398122 19.64664748 -26.85789115 18.34139856 -31.1796875 17.46484375 C-37.74848438 16.98910916 -43.5532777 16.62241754 -49.1796875 20.46484375 C-50.0459375 21.02171875 -50.9121875 21.57859375 -51.8046875 22.15234375 C-57.27845011 27.48205997 -59.27024135 34.27316038 -59.3828125 41.75390625 C-59.40406463 43.86583629 -59.4194722 45.97783149 -59.4296875 48.08984375 C-59.4503125 49.13269531 -59.4709375 50.17554688 -59.4921875 51.25 C-59.53357217 59.53727967 -58.52377444 66.74188213 -54.0546875 73.83984375 C-47.3693452 79.94385194 -40.78969476 81.16134393 -31.8359375 80.9375 C-26.75439106 80.28059068 -22.39862183 78.60974175 -17.7265625 76.55859375 C-15.1796875 75.46484375 -15.1796875 75.46484375 -13.1796875 75.46484375 C-13.1796875 71.83484375 -13.1796875 68.20484375 -13.1796875 64.46484375 C-20.4396875 64.46484375 -27.6996875 64.46484375 -35.1796875 64.46484375 C-35.1796875 56.87484375 -35.1796875 49.28484375 -35.1796875 41.46484375 C-18.0196875 41.46484375 -0.8596875 41.46484375 16.8203125 41.46484375 C17.1709375 49.01359375 17.5215625 56.56234375 17.8828125 64.33984375 C18.03758057 66.70253418 18.19234863 69.06522461 18.35180664 71.49951172 C18.90131027 85.89191017 18.90131027 85.89191017 15.2227478 90.44006348 C10.63484826 94.2683966 5.39631496 96.46365165 -0.1796875 98.46484375 C-1.59088166 99.0168629 -3.00147921 99.57041048 -4.41137695 100.12573242 C-23.13029395 107.12602285 -45.73766118 108.32693437 -64.66796875 101.140625 C-77.09226065 95.24566209 -84.84641221 86.77646611 -89.9921875 73.96484375 C-96.29447099 56.15674665 -95.9810055 37.25745809 -88.39453125 19.765625 C-81.63077407 6.95580835 -70.6963091 -1.25862088 -57.0703125 -5.50390625 C-40.05909312 -9.81660975 -14.86161117 -10.46704873 0 0 Z " fill="#936A20" transform="translate(302.1796875,152.53515625)"/>
<path d="M0 0 C11.22 0 22.44 0 34 0 C34.02578125 5.176875 34.0515625 10.35375 34.078125 15.6875 C34.1033079 18.97791329 34.12965176 22.26823598 34.16015625 25.55859375 C34.20840611 30.77490519 34.2524826 35.99100674 34.27099609 41.20751953 C34.28620147 45.41584393 34.32071502 49.62361724 34.36830902 53.83169556 C34.38308301 55.43270055 34.39103872 57.03378424 34.39188385 58.63485718 C34.28255945 70.41608079 34.28255945 70.41608079 39 81 C44.2432599 85.46234885 49.12498242 85.61250059 55.8984375 85.38671875 C60.33263722 84.83383994 62.51632521 83.80208624 66 81 C69.86871163 75.84171783 70.12794583 71.25928344 70.20532227 64.93652344 C70.21522186 64.23368225 70.22512146 63.53084106 70.23532104 62.80670166 C70.26682784 60.49096 70.29165049 58.17519785 70.31640625 55.859375 C70.33698513 54.25082882 70.35798185 52.64228794 70.37937927 51.03375244 C70.43450348 46.8055043 70.48395521 42.57720814 70.53222656 38.34887695 C70.59135743 33.27268231 70.65753219 28.19657519 70.72252655 23.12045288 C70.82041461 15.41368883 70.90935366 7.70686796 71 0 C81.89 0 92.78 0 104 0 C104.12032643 18.02668153 104.12032643 18.02668153 104.14648438 25.76757812 C104.16435129 31.02979721 104.18538589 36.29185826 104.22631836 41.55395508 C104.25914425 45.80094817 104.2769015 50.04777156 104.28463173 54.29488182 C104.29013387 55.90743871 104.30087708 57.51998732 104.31719017 59.13247108 C104.46322736 74.17920969 102.57974549 87.65765929 92.046875 99.11328125 C78.77835965 111.34361124 61.99256696 111.62571434 45 111 C30.23913687 110.09904161 20.33806868 106.72505521 10 96 C9.47277344 95.45601563 8.94554688 94.91203125 8.40234375 94.3515625 C1.72136919 86.30170324 -0.13183914 73.17072308 -0.11352539 63.0065918 C-0.11374443 61.98137169 -0.11374443 61.98137169 -0.1139679 60.93544006 C-0.11327462 58.68999999 -0.10550974 56.44464423 -0.09765625 54.19921875 C-0.09578999 52.63694809 -0.09436707 51.07467685 -0.09336853 49.5124054 C-0.08955972 45.41069916 -0.07974346 41.30902861 -0.06866455 37.20733643 C-0.05661155 32.28052254 -0.0520404 27.35369668 -0.04621124 22.42687225 C-0.03653079 14.95122338 -0.01736281 7.47565275 0 0 Z " fill="#936A20" transform="translate(85,147)"/>
</svg>
